<?xml version="1.0" encoding="UTF-8" standalone="no"?>

<svg
        xmlns:dc="http://purl.org/dc/elements/1.1/"
        xmlns:cc="http://creativecommons.org/ns#"
        xmlns:rdf="http://www.w3.org/1999/02/22-rdf-syntax-ns#"
        xmlns:svg="http://www.w3.org/2000/svg"
        xmlns="http://www.w3.org/2000/svg"
        xmlns:sodipodi="http://sodipodi.sourceforge.net/DTD/sodipodi-0.dtd"
        xmlns:inkscape="http://www.inkscape.org/namespaces/inkscape"
        viewBox="0 0 192 170"
        version="1.1"
        id="svg8"
        inkscape:version="0.92.3 (2405546, 2018-03-11)"
        sodipodi:docname="blindtest-icon.svg">
 <defs
         id="defs2" />
 <sodipodi:namedview
         id="base"
         pagecolor="#ffffff"
         bordercolor="#666666"
         borderopacity="1.0"
         inkscape:pageopacity="0.0"
         inkscape:pageshadow="2"
         inkscape:zoom="3.959798"
         inkscape:cx="119.52541"
         inkscape:cy="3.3806007"
         inkscape:document-units="mm"
         inkscape:current-layer="g4675"
         showgrid="false"
         showguides="true"
         inkscape:lockguides="true"
         inkscape:window-width="1853"
         inkscape:window-height="1025"
         inkscape:window-x="67"
         inkscape:window-y="27"
         inkscape:window-maximized="1" />
 <metadata
         id="metadata5">
  <rdf:RDF>
   <cc:Work
           rdf:about="">
    <dc:format>image/svg+xml</dc:format>
    <dc:type
            rdf:resource="http://purl.org/dc/dcmitype/StillImage" />
    <dc:title></dc:title>
   </cc:Work>
  </rdf:RDF>
 </metadata>
 <g>
  <title>background</title>
  <rect fill="none" id="canvas_background" height="170" width="192" y="-1" x="-1"/>
  <g display="none" overflow="visible" y="0" x="0" height="100%" width="100%" id="canvasGrid">
   <rect fill="url(#gridpattern)" stroke-width="0" y="0" x="0" height="100%" width="100%"/>
  </g>
 </g>
 <g>
  <title>Layer 1</title>
  <path id="svg_1" d="m166.866028,165.121094c0,2.450562 -1.983978,4.434418 -4.434418,4.434418l-28.391632,0c-2.44751,0 -4.434204,-1.983856 -4.434204,-4.434418l0,-60.318634c0,-2.450409 1.986694,-4.434189 4.434204,-4.434189l28.391632,0c2.450439,0 4.434418,1.98378 4.434418,4.434189l0,60.318634zm-105.116348,0c0,2.450562 -1.983856,4.434418 -4.434326,4.434418l-28.391617,0c-2.450516,0 -4.434158,-1.983856 -4.434158,-4.434418l0,-60.318634c0,-2.450409 1.983643,-4.434189 4.434158,-4.434189l28.391617,0c2.45047,0 4.434326,1.98378 4.434326,4.434189l0,60.318634zm34.302994,-163.565573c-51.378784,0 -93.084641,41.328005 -93.72583,92.552115l16.265442,0c0.526886,-42.335651 34.998917,-76.492649 77.460388,-76.492649c42.458832,0 76.930634,34.156998 77.45166,76.492649l16.265533,0c-0.635498,-51.22411 -42.352844,-92.552115 -93.717194,-92.552115zm-93.594131,139.468008l15.970566,0l0,-47.010376l-15.970566,0l0,47.010376zm170.914017,-47.01619l0,47.010483l16.560455,0l0,-47.010483l-16.560455,0z" stroke-width="0" stroke="#000" fill="#fff"/>
  <path id="svg_2" d="m94.700974,35.293499c-28.369522,0 -50.751022,29.00034 -50.751022,29.00034s22.3815,29.00032 50.751022,29.00032c21.692719,0 50.744553,-29.00032 50.744553,-29.00032s-29.051834,-29.00034 -50.744553,-29.00034zm0,47.068897c-9.95752,0 -18.073822,-8.111206 -18.073822,-18.068558s8.116302,-18.067677 18.073822,-18.067677s18.067703,8.110306 18.067703,18.067677s-8.110519,18.068558 -18.067703,18.068558zm0,-28.622425c-5.822083,0 -10.54837,4.726898 -10.54837,10.553867c0,5.827835 4.720535,10.542328 10.54837,10.542328c5.827148,0 10.548065,-4.714493 10.548065,-10.542328c0,-5.826969 -4.720917,-10.553867 -10.548065,-10.553867z" fill-opacity="null" stroke-opacity="null" stroke-width="0" stroke="#000" fill="#fff"/>
 </g>
</svg>