<?xml version="1.0" ?><!DOCTYPE svg  PUBLIC '-//W3C//DTD SVG 1.1//EN'  'http://www.w3.org/Graphics/SVG/1.1/DTD/svg11.dtd'><svg height="260px" style="shape-rendering:geometricPrecision; text-rendering:geometricPrecision; image-rendering:optimizeQuality; fill-rule:evenodd; clip-rule:evenodd" version="1.1" viewBox="0 0 256000 259963" width="256px" xml:space="preserve" xmlns="http://www.w3.org/2000/svg" xmlns:xlink="http://www.w3.org/1999/xlink"><defs><style type="text/css">
   <![CDATA[
    .fil2 {fill:none}
    .fil1 {fill:#0072C6}
    .fil0 {fill:#0072C6;fill-rule:nonzero}
   ]]>
  </style></defs><g id="Layer_x0020_1"><g id="_394369904"><path class="fil0" d="M156796 113501l0 -49552 0 -2712 2724 0 85066 2 0 -11c2444,0 5794,1683 8174,4483 1862,2190 3227,5097 3227,8449l0 1444 -1201 810 -74526 50247 -703 340c-497,157 -1148,231 -1747,231 -580,0 -1233,-76 -1729,-221l-692 -308 -17316 -10905 -1277 -803 0 -1494z"/><path class="fil0" d="M161052 122800l15804 10856 74 53c680,499 1685,-17 1884,-128l72962 -48605 4224 -2812 0 5079 0 91072c0,5372 -1669,9367 -4325,12139 -3070,3203 -7364,4656 -11883,4656l-80283 0 -2723 0 1 -2724 0 -67342 0 -2723 2722 0 11 0 1532 479z"/><path class="fil0" d="M77783 99012c-2728,0 -5153,626 -7269,1876 -2189,1291 -4121,3269 -5792,5931l-6 -3c-1747,2791 -3073,6092 -3976,9901 -919,3880 -1379,8268 -1379,13161 0,4970 460,9392 1379,13266 895,3770 2219,7011 3969,9723 1671,2595 3567,4515 5684,5765 2038,1201 4343,1801 6919,1801l0 13c2684,0 5073,-595 7165,-1784 2127,-1209 4001,-3061 5623,-5557 1702,-2622 2992,-5801 3868,-9537 900,-3840 1351,-8261 1351,-13259 0,-5238 -438,-9867 -1318,-13884 -852,-3891 -2112,-7196 -3778,-9913 -1577,-2566 -3403,-4469 -5481,-5707 -2020,-1203 -4340,-1806 -6959,-1806l0 13z"/><path class="fil1" d="M152920 256615l0 -253320 0 -3295 -3235 625 -147472 28546 -2213 428 0 2242 0 193856 0 2204 2171 455 147471 30919 3278 688 0 -3348zm-74804 -173673c5305,0 10119,1091 14436,3276 4304,2178 8087,5429 11344,9754l5 -4c3211,4257 5615,9173 7211,14749 1574,5500 2361,11635 2361,18406l-11 0c5,6951 -808,13251 -2436,18900 -1652,5733 -4139,10786 -7458,15156 -3377,4442 -7282,7783 -11713,10022 -4456,2249 -9400,3376 -14833,3376l0 -10c-5326,-2 -10161,-1088 -14510,-3259 -4343,-2169 -8183,-5408 -11521,-9717 -3281,-4245 -5741,-9120 -7377,-14625 -1617,-5442 -2427,-11478 -2427,-18111 0,-6989 816,-13334 2449,-19032 1650,-5762 4142,-10864 7476,-15304 3384,-4508 7332,-7897 11844,-10167 4533,-2279 9587,-3420 15160,-3420l0 10z"/></g></g><rect class="fil2" height="255998" width="255998" x="1" y="1834"/></svg>